<svg width="220" height="60" viewBox="0 0 220 60" fill="none" xmlns="http://www.w3.org/2000/svg">
<rect x="24.6855" width="41.8117" height="13.0661" rx="6" transform="rotate(25 24.6855 0)" fill="white"/>
<rect x="29.041" y="21.7769" width="41.8117" height="13.0661" rx="6" transform="rotate(25 29.041 21.7769)" fill="white"/>
<rect x="5.52246" y="30.4877" width="41.8117" height="13.0661" rx="6" transform="rotate(25 5.52246 30.4877)" fill="white"/>
<path d="M84.6704 41V20H88.7804L96.4304 32.45L93.7304 32.42L101.47 20H105.4V41H100.99V33.8C100.99 32 101.03 30.38 101.11 28.94C101.21 27.5 101.37 26.07 101.59 24.65L102.13 26.06L95.9804 35.6H94.0004L87.9704 26.12L88.4804 24.65C88.7004 25.99 88.8504 27.37 88.9304 28.79C89.0304 30.19 89.0804 31.86 89.0804 33.8V41H84.6704ZM108.372 41L116.592 20H120.612L128.802 41H124.182L119.952 29.69C119.832 29.37 119.682 28.96 119.502 28.46C119.342 27.96 119.172 27.43 118.992 26.87C118.812 26.31 118.642 25.78 118.482 25.28C118.322 24.76 118.202 24.33 118.122 23.99L118.932 23.96C118.812 24.42 118.672 24.9 118.512 25.4C118.372 25.88 118.222 26.38 118.062 26.9C117.902 27.4 117.732 27.89 117.552 28.37C117.372 28.85 117.202 29.32 117.042 29.78L112.812 41H108.372ZM112.182 36.59L113.652 32.96H123.282L124.782 36.59H112.182ZM131.751 41V20H135.771L147.381 35.69H146.541C146.461 35.07 146.391 34.47 146.331 33.89C146.271 33.29 146.211 32.69 146.151 32.09C146.111 31.47 146.071 30.84 146.031 30.2C146.011 29.54 145.991 28.85 145.971 28.13C145.951 27.39 145.941 26.59 145.941 25.73V20H150.351V41H146.271L134.421 25.16L135.561 25.19C135.661 26.23 135.741 27.12 135.801 27.86C135.881 28.58 135.941 29.21 135.981 29.75C136.021 30.29 136.051 30.76 136.071 31.16C136.111 31.56 136.131 31.94 136.131 32.3C136.151 32.66 136.161 33.04 136.161 33.44V41H131.751ZM165.433 41.3C163.813 41.3 162.323 41.03 160.963 40.49C159.623 39.93 158.463 39.16 157.483 38.18C156.503 37.2 155.743 36.05 155.203 34.73C154.683 33.41 154.423 31.98 154.423 30.44C154.423 28.9 154.693 27.48 155.233 26.18C155.793 24.86 156.573 23.72 157.573 22.76C158.593 21.78 159.783 21.02 161.143 20.48C162.503 19.94 163.993 19.67 165.613 19.67C166.733 19.67 167.803 19.82 168.823 20.12C169.843 20.42 170.773 20.83 171.613 21.35C172.453 21.87 173.153 22.47 173.713 23.15L170.923 26.09C170.403 25.59 169.853 25.17 169.273 24.83C168.713 24.47 168.123 24.2 167.503 24.02C166.883 23.82 166.243 23.72 165.583 23.72C164.643 23.72 163.773 23.89 162.973 24.23C162.193 24.57 161.503 25.04 160.903 25.64C160.303 26.24 159.833 26.95 159.493 27.77C159.173 28.59 159.013 29.48 159.013 30.44C159.013 31.38 159.183 32.27 159.523 33.11C159.883 33.93 160.363 34.65 160.963 35.27C161.583 35.87 162.303 36.35 163.123 36.71C163.943 37.05 164.823 37.22 165.763 37.22C166.423 37.22 167.053 37.12 167.653 36.92C168.253 36.72 168.773 36.44 169.213 36.08C169.673 35.7 170.023 35.26 170.263 34.76C170.523 34.26 170.653 33.73 170.653 33.17V32.45L171.253 33.29H165.253V29.54H174.973C174.993 29.76 175.013 30.03 175.033 30.35C175.073 30.67 175.093 30.99 175.093 31.31C175.113 31.61 175.123 31.85 175.123 32.03C175.123 33.39 174.873 34.64 174.373 35.78C173.893 36.92 173.213 37.9 172.333 38.72C171.473 39.54 170.453 40.18 169.273 40.64C168.093 41.08 166.813 41.3 165.433 41.3ZM188.394 41.3C186.854 41.3 185.434 41.03 184.134 40.49C182.834 39.95 181.694 39.2 180.714 38.24C179.754 37.26 179.014 36.11 178.494 34.79C177.974 33.45 177.714 32 177.714 30.44C177.714 28.86 177.974 27.42 178.494 26.12C179.014 24.8 179.754 23.65 180.714 22.67C181.694 21.69 182.834 20.93 184.134 20.39C185.434 19.85 186.854 19.58 188.394 19.58C189.954 19.58 191.374 19.85 192.654 20.39C193.954 20.93 195.084 21.69 196.044 22.67C197.024 23.65 197.774 24.8 198.294 26.12C198.814 27.44 199.074 28.88 199.074 30.44C199.074 32 198.814 33.44 198.294 34.76C197.774 36.08 197.024 37.23 196.044 38.21C195.084 39.19 193.954 39.95 192.654 40.49C191.374 41.03 189.954 41.3 188.394 41.3ZM188.394 37.04C189.274 37.04 190.084 36.88 190.824 36.56C191.584 36.24 192.234 35.78 192.774 35.18C193.314 34.58 193.734 33.88 194.034 33.08C194.354 32.28 194.514 31.4 194.514 30.44C194.514 29.48 194.354 28.6 194.034 27.8C193.734 27 193.314 26.31 192.774 25.73C192.234 25.13 191.584 24.67 190.824 24.35C190.084 24.01 189.274 23.84 188.394 23.84C187.514 23.84 186.704 24.01 185.964 24.35C185.224 24.67 184.574 25.13 184.014 25.73C183.454 26.31 183.024 27 182.724 27.8C182.444 28.6 182.304 29.48 182.304 30.44C182.304 31.4 182.444 32.28 182.724 33.08C183.024 33.88 183.454 34.58 184.014 35.18C184.574 35.78 185.224 36.24 185.964 36.56C186.704 36.88 187.514 37.04 188.394 37.04ZM209.957 41.3C208.657 41.3 207.467 41.14 206.387 40.82C205.327 40.5 204.377 40.03 203.537 39.41C202.717 38.79 201.977 38.04 201.317 37.16L204.137 33.95C205.117 35.31 206.087 36.24 207.047 36.74C208.027 37.22 209.087 37.46 210.227 37.46C210.847 37.46 211.397 37.38 211.877 37.22C212.377 37.04 212.767 36.79 213.047 36.47C213.327 36.15 213.467 35.77 213.467 35.33C213.467 35.01 213.397 34.72 213.257 34.46C213.117 34.18 212.917 33.94 212.657 33.74C212.397 33.52 212.087 33.33 211.727 33.17C211.367 32.99 210.967 32.84 210.527 32.72C210.087 32.58 209.607 32.47 209.087 32.39C207.967 32.13 206.987 31.82 206.147 31.46C205.307 31.08 204.607 30.62 204.047 30.08C203.487 29.52 203.067 28.89 202.787 28.19C202.527 27.49 202.397 26.7 202.397 25.82C202.397 24.92 202.597 24.09 202.997 23.33C203.397 22.55 203.947 21.88 204.647 21.32C205.367 20.76 206.187 20.33 207.107 20.03C208.047 19.73 209.037 19.58 210.077 19.58C211.357 19.58 212.477 19.73 213.437 20.03C214.397 20.31 215.227 20.72 215.927 21.26C216.647 21.8 217.247 22.46 217.727 23.24L214.877 26C214.457 25.44 213.997 24.97 213.497 24.59C213.017 24.21 212.487 23.93 211.907 23.75C211.347 23.55 210.767 23.45 210.167 23.45C209.507 23.45 208.937 23.54 208.457 23.72C207.977 23.88 207.597 24.12 207.317 24.44C207.057 24.76 206.927 25.15 206.927 25.61C206.927 25.97 207.017 26.29 207.197 26.57C207.377 26.85 207.637 27.1 207.977 27.32C208.317 27.52 208.727 27.7 209.207 27.86C209.687 28.02 210.217 28.16 210.797 28.28C211.897 28.5 212.887 28.79 213.767 29.15C214.647 29.51 215.397 29.95 216.017 30.47C216.657 30.97 217.147 31.57 217.487 32.27C217.827 32.95 217.997 33.72 217.997 34.58C217.997 36 217.657 37.21 216.977 38.21C216.297 39.21 215.357 39.98 214.157 40.52C212.957 41.04 211.557 41.3 209.957 41.3Z" fill="white"/>
</svg>
